<?xml version="1.0" encoding="UTF-8"?>
<!-- Generator: Adobe Illustrator 21.1.0, SVG Export Plug-In . SVG Version: 6.00 Build 0)  -->
<svg version="1.1" id="Ebene_1" xmlns="http://www.w3.org/2000/svg" xmlns:xlink="http://www.w3.org/1999/xlink" x="0px" y="0px" viewBox="0 0 120 120" style="enable-background:new 0 0 120 120;" xml:space="preserve">
<style type="text/css">
	.st0{fill:#24244C;}
	.st1{fill:#FF4D67;}
</style>
<g>
	<rect class="st0" width="120" height="120"/>
	<path class="st1" d="M57.1,34.8c14.1,0,24.2,10.3,24.2,25.2c0,2.8-0.3,5.5-1,7.9l-2.8-3.8H54.9l13.7,18.4   c-3.3,1.7-7.3,2.6-11.4,2.6c-14.1,0-24.2-10.3-24.2-25.2S43,34.8,57.1,34.8 M57.1,15c-26.8,0-45.9,19-45.9,45s19,45,45.9,45   c9.1,0,16.9-2.5,23.5-6.8l3.8,5.1h24.3L95,84.8c4.8-7,7.6-15.1,7.6-24.8C103,34.2,83.9,15,57.1,15"/>
</g>
</svg>